ply
format ascii 1.0
element vertex 125
property float x
property float y
property float z
end_header
-0.5 -0.5 -0.5
-0.5 -0.5 -0.25
-0.5 -0.5 0.0
-0.5 -0.5 0.25
-0.5 -0.5 0.5
-0.5 -0.25 -0.5
-0.5 -0.25 -0.25
-0.5 -0.25 0.0
-0.5 -0.25 0.25
-0.5 -0.25 0.5
-0.5 0.0 -0.5
-0.5 0.0 -0.25
-0.5 0.0 0.0
-0.5 0.0 0.25
-0.5 0.0 0.5
-0.5 0.25 -0.5
-0.5 0.25 -0.25
-0.5 0.25 0.0
-0.5 0.25 0.25
-0.5 0.25 0.5
-0.5 0.5 -0.5
-0.5 0.5 -0.25
-0.5 0.5 0.0
-0.5 0.5 0.25
-0.5 0.5 0.5
-0.25 -0.5 -0.5
-0.25 -0.5 -0.25
-0.25 -0.5 0.0
-0.25 -0.5 0.25
-0.25 -0.5 0.5
-0.25 -0.25 -0.5
-0.25 -0.25 -0.25
-0.25 -0.25 0.0
-0.25 -0.25 0.25
-0.25 -0.25 0.5
-0.25 0.0 -0.5
-0.25 0.0 -0.25
-0.25 0.0 0.0
-0.25 0.0 0.25
-0.25 0.0 0.5
-0.25 0.25 -0.5
-0.25 0.25 -0.25
-0.25 0.25 0.0
-0.25 0.25 0.25
-0.25 0.25 0.5
-0.25 0.5 -0.5
-0.25 0.5 -0.25
-0.25 0.5 0.0
-0.25 0.5 0.25
-0.25 0.5 0.5
0.0 -0.5 -0.5
0.0 -0.5 -0.25
0.0 -0.5 0.0
0.0 -0.5 0.25
0.0 -0.5 0.5
0.0 -0.25 -0.5
0.0 -0.25 -0.25
0.0 -0.25 0.0
0.0 -0.25 0.25
0.0 -0.25 0.5
0.0 0.0 -0.5
0.0 0.0 -0.25
0.0 0.0 0.0
0.0 0.0 0.25
0.0 0.0 0.5
0.0 0.25 -0.5
0.0 0.25 -0.25
0.0 0.25 0.0
0.0 0.25 0.25
0.0 0.25 0.5
0.0 0.5 -0.5
0.0 0.5 -0.25
0.0 0.5 0.0
0.0 0.5 0.25
0.0 0.5 0.5
0.25 -0.5 -0.5
0.25 -0.5 -0.25
0.25 -0.5 0.0
0.25 -0.5 0.25
0.25 -0.5 0.5
0.25 -0.25 -0.5
0.25 -0.25 -0.25
0.25 -0.25 0.0
0.25 -0.25 0.25
0.25 -0.25 0.5
0.25 0.0 -0.5
0.25 0.0 -0.25
0.25 0.0 0.0
0.25 0.0 0.25
0.25 0.0 0.5
0.25 0.25 -0.5
0.25 0.25 -0.25
0.25 0.25 0.0
0.25 0.25 0.25
0.25 0.25 0.5
0.25 0.5 -0.5
0.25 0.5 -0.25
0.25 0.5 0.0
0.25 0.5 0.25
0.25 0.5 0.5
0.5 -0.5 -0.5
0.5 -0.5 -0.25
0.5 -0.5 0.0
0.5 -0.5 0.25
0.5 -0.5 0.5
0.5 -0.25 -0.5
0.5 -0.25 -0.25
0.5 -0.25 0.0
0.5 -0.25 0.25
0.5 -0.25 0.5
0.5 0.0 -0.5
0.5 0.0 -0.25
0.5 0.0 0.0
0.5 0.0 0.25
0.5 0.0 0.5
0.5 0.25 -0.5
0.5 0.25 -0.25
0.5 0.25 0.0
0.5 0.25 0.25
0.5 0.25 0.5
0.5 0.5 -0.5
0.5 0.5 -0.25
0.5 0.5 0.0
0.5 0.5 0.25
0.5 0.5 0.5
